%TF.GenerationSoftware,KiCad,Pcbnew,10.0.0*%
%TF.CreationDate,2026-04-06T23:45:41-07:00*%
%TF.ProjectId,digits-pcb,64696769-7473-42d7-9063-622e6b696361,rev?*%
%TF.SameCoordinates,Original*%
%TF.FileFunction,Copper,L1,Top*%
%TF.FilePolarity,Positive*%
%FSLAX46Y46*%
G04 Gerber Fmt 4.6, Leading zero omitted, Abs format (unit mm)*
G04 Created by KiCad (PCBNEW 10.0.0) date 2026-04-06 23:45:41*
%MOMM*%
%LPD*%
G01*
G04 APERTURE LIST*
G04 Aperture macros list*
%AMRoundRect*
0 Rectangle with rounded corners*
0 $1 Rounding radius*
0 $2 $3 $4 $5 $6 $7 $8 $9 X,Y pos of 4 corners*
0 Add a 4 corners polygon primitive as box body*
4,1,4,$2,$3,$4,$5,$6,$7,$8,$9,$2,$3,0*
0 Add four circle primitives for the rounded corners*
1,1,$1+$1,$2,$3*
1,1,$1+$1,$4,$5*
1,1,$1+$1,$6,$7*
1,1,$1+$1,$8,$9*
0 Add four rect primitives between the rounded corners*
20,1,$1+$1,$2,$3,$4,$5,0*
20,1,$1+$1,$4,$5,$6,$7,0*
20,1,$1+$1,$6,$7,$8,$9,0*
20,1,$1+$1,$8,$9,$2,$3,0*%
%AMFreePoly0*
4,1,37,0.800000,0.796148,0.878414,0.796148,1.032228,0.765552,1.177117,0.705537,1.307515,0.618408,1.418408,0.507515,1.505537,0.377117,1.565552,0.232228,1.596148,0.078414,1.596148,-0.078414,1.565552,-0.232228,1.505537,-0.377117,1.418408,-0.507515,1.307515,-0.618408,1.177117,-0.705537,1.032228,-0.765552,0.878414,-0.796148,0.800000,-0.796148,0.800000,-0.800000,-1.400000,-0.800000,
-1.403843,-0.796157,-1.439018,-0.796157,-1.511114,-0.766294,-1.566294,-0.711114,-1.596157,-0.639018,-1.596157,-0.603843,-1.600000,-0.600000,-1.600000,0.600000,-1.596157,0.603843,-1.596157,0.639018,-1.566294,0.711114,-1.511114,0.766294,-1.439018,0.796157,-1.403843,0.796157,-1.400000,0.800000,0.800000,0.800000,0.800000,0.796148,0.800000,0.796148,$1*%
%AMFreePoly1*
4,1,37,1.403843,0.796157,1.439018,0.796157,1.511114,0.766294,1.566294,0.711114,1.596157,0.639018,1.596157,0.603843,1.600000,0.600000,1.600000,-0.600000,1.596157,-0.603843,1.596157,-0.639018,1.566294,-0.711114,1.511114,-0.766294,1.439018,-0.796157,1.403843,-0.796157,1.400000,-0.800000,-0.800000,-0.800000,-0.800000,-0.796148,-0.878414,-0.796148,-1.032228,-0.765552,-1.177117,-0.705537,
-1.307515,-0.618408,-1.418408,-0.507515,-1.505537,-0.377117,-1.565552,-0.232228,-1.596148,-0.078414,-1.596148,0.078414,-1.565552,0.232228,-1.505537,0.377117,-1.418408,0.507515,-1.307515,0.618408,-1.177117,0.705537,-1.032228,0.765552,-0.878414,0.796148,-0.800000,0.796148,-0.800000,0.800000,1.400000,0.800000,1.403843,0.796157,1.403843,0.796157,$1*%
%AMFreePoly2*
4,1,37,0.603843,0.796157,0.639018,0.796157,0.711114,0.766294,0.766294,0.711114,0.796157,0.639018,0.796157,0.603843,0.800000,0.600000,0.800000,-0.600000,0.796157,-0.603843,0.796157,-0.639018,0.766294,-0.711114,0.711114,-0.766294,0.639018,-0.796157,0.603843,-0.796157,0.600000,-0.800000,0.000000,-0.800000,0.000000,-0.796148,-0.078414,-0.796148,-0.232228,-0.765552,-0.377117,-0.705537,
-0.507515,-0.618408,-0.618408,-0.507515,-0.705537,-0.377117,-0.765552,-0.232228,-0.796148,-0.078414,-0.796148,0.078414,-0.765552,0.232228,-0.705537,0.377117,-0.618408,0.507515,-0.507515,0.618408,-0.377117,0.705537,-0.232228,0.765552,-0.078414,0.796148,0.000000,0.796148,0.000000,0.800000,0.600000,0.800000,0.603843,0.796157,0.603843,0.796157,$1*%
%AMFreePoly3*
4,1,37,0.000000,0.796148,0.078414,0.796148,0.232228,0.765552,0.377117,0.705537,0.507515,0.618408,0.618408,0.507515,0.705537,0.377117,0.765552,0.232228,0.796148,0.078414,0.796148,-0.078414,0.765552,-0.232228,0.705537,-0.377117,0.618408,-0.507515,0.507515,-0.618408,0.377117,-0.705537,0.232228,-0.765552,0.078414,-0.796148,0.000000,-0.796148,0.000000,-0.800000,-0.600000,-0.800000,
-0.603843,-0.796157,-0.639018,-0.796157,-0.711114,-0.766294,-0.766294,-0.711114,-0.796157,-0.639018,-0.796157,-0.603843,-0.800000,-0.600000,-0.800000,0.600000,-0.796157,0.603843,-0.796157,0.639018,-0.766294,0.711114,-0.711114,0.766294,-0.639018,0.796157,-0.603843,0.796157,-0.600000,0.800000,0.000000,0.800000,0.000000,0.796148,0.000000,0.796148,$1*%
G04 Aperture macros list end*
%TA.AperFunction,ComponentPad*%
%ADD10RoundRect,0.250000X-0.750000X-0.750000X0.750000X-0.750000X0.750000X0.750000X-0.750000X0.750000X0*%
%TD*%
%TA.AperFunction,ComponentPad*%
%ADD11C,2.000000*%
%TD*%
%TA.AperFunction,SMDPad,CuDef*%
%ADD12FreePoly0,180.000000*%
%TD*%
%TA.AperFunction,ComponentPad*%
%ADD13RoundRect,0.200000X0.600000X0.600000X-0.600000X0.600000X-0.600000X-0.600000X0.600000X-0.600000X0*%
%TD*%
%TA.AperFunction,SMDPad,CuDef*%
%ADD14RoundRect,0.800000X0.800000X0.000010X-0.800000X0.000010X-0.800000X-0.000010X0.800000X-0.000010X0*%
%TD*%
%TA.AperFunction,ComponentPad*%
%ADD15C,1.600000*%
%TD*%
%TA.AperFunction,SMDPad,CuDef*%
%ADD16FreePoly1,180.000000*%
%TD*%
%TA.AperFunction,ComponentPad*%
%ADD17FreePoly2,180.000000*%
%TD*%
%TA.AperFunction,ComponentPad*%
%ADD18FreePoly3,180.000000*%
%TD*%
%TA.AperFunction,ComponentPad*%
%ADD19RoundRect,0.250000X-1.350000X-1.350000X1.350000X-1.350000X1.350000X1.350000X-1.350000X1.350000X0*%
%TD*%
%TA.AperFunction,ComponentPad*%
%ADD20C,3.200000*%
%TD*%
%TA.AperFunction,ComponentPad*%
%ADD21R,3.500000X3.500000*%
%TD*%
%TA.AperFunction,ComponentPad*%
%ADD22RoundRect,0.750000X-1.000000X0.750000X-1.000000X-0.750000X1.000000X-0.750000X1.000000X0.750000X0*%
%TD*%
%TA.AperFunction,ComponentPad*%
%ADD23RoundRect,0.875000X-0.875000X0.875000X-0.875000X-0.875000X0.875000X-0.875000X0.875000X0.875000X0*%
%TD*%
%TA.AperFunction,ComponentPad*%
%ADD24RoundRect,0.250000X1.050000X-1.050000X1.050000X1.050000X-1.050000X1.050000X-1.050000X-1.050000X0*%
%TD*%
%TA.AperFunction,ComponentPad*%
%ADD25C,2.600000*%
%TD*%
%TA.AperFunction,ComponentPad*%
%ADD26R,1.700000X1.700000*%
%TD*%
%TA.AperFunction,ComponentPad*%
%ADD27C,1.700000*%
%TD*%
%TA.AperFunction,ComponentPad*%
%ADD28RoundRect,0.250000X-0.550000X-0.550000X0.550000X-0.550000X0.550000X0.550000X-0.550000X0.550000X0*%
%TD*%
%TA.AperFunction,ComponentPad*%
%ADD29RoundRect,0.250000X-0.615000X0.265000X-0.615000X-0.265000X0.615000X-0.265000X0.615000X0.265000X0*%
%TD*%
%TA.AperFunction,ComponentPad*%
%ADD30O,1.730000X1.030000*%
%TD*%
%TA.AperFunction,SMDPad,CuDef*%
%ADD31RoundRect,0.150000X-0.150000X-0.625000X0.150000X-0.625000X0.150000X0.625000X-0.150000X0.625000X0*%
%TD*%
%TA.AperFunction,SMDPad,CuDef*%
%ADD32RoundRect,0.250000X-0.350000X-0.650000X0.350000X-0.650000X0.350000X0.650000X-0.350000X0.650000X0*%
%TD*%
%TA.AperFunction,SMDPad,CuDef*%
%ADD33RoundRect,0.250000X-2.050000X-0.300000X2.050000X-0.300000X2.050000X0.300000X-2.050000X0.300000X0*%
%TD*%
%TA.AperFunction,SMDPad,CuDef*%
%ADD34RoundRect,0.250002X-4.449998X-5.149998X4.449998X-5.149998X4.449998X5.149998X-4.449998X5.149998X0*%
%TD*%
%TA.AperFunction,ComponentPad*%
%ADD35RoundRect,0.250000X-0.265000X-0.615000X0.265000X-0.615000X0.265000X0.615000X-0.265000X0.615000X0*%
%TD*%
%TA.AperFunction,ComponentPad*%
%ADD36O,1.030000X1.730000*%
%TD*%
%TA.AperFunction,ViaPad*%
%ADD37C,0.600000*%
%TD*%
%TA.AperFunction,Conductor*%
%ADD38C,0.250000*%
%TD*%
%TA.AperFunction,Conductor*%
%ADD39C,0.750000*%
%TD*%
G04 APERTURE END LIST*
D10*
%TO.P,C1,1*%
%TO.N,+12V*%
X27500000Y-64960000D03*
D11*
%TO.P,C1,2*%
%TO.N,GND*%
X32500000Y-64960000D03*
%TD*%
%TO.P,SW1,1,1_1*%
%TO.N,/HOOK_SW*%
X62400000Y-31960000D03*
X68900000Y-31960000D03*
%TO.P,SW1,2,2_2*%
%TO.N,GND*%
X62400000Y-36460000D03*
X68900000Y-36460000D03*
%TD*%
D12*
%TO.P,A1,1,GPIO0_1*%
%TO.N,/UART_RX_PI*%
X57300000Y-67520000D03*
D13*
X56500000Y-67520000D03*
D14*
%TO.P,A1,2,GPIO1_2*%
%TO.N,/UART_TX_PI*%
X57300000Y-64980000D03*
D15*
X56500000Y-64980000D03*
D16*
%TO.P,A1,3,GND_3*%
%TO.N,GND*%
X57300000Y-62440000D03*
D17*
X56500000Y-62440000D03*
D14*
%TO.P,A1,4,GPIO2_4*%
%TO.N,/KP_ROW0*%
X57300000Y-59900000D03*
D15*
X56500000Y-59900000D03*
D14*
%TO.P,A1,5,GPIO3_5*%
%TO.N,/KP_ROW1*%
X57300000Y-57360000D03*
D15*
X56500000Y-57360000D03*
D14*
%TO.P,A1,6,GPIO4_6*%
%TO.N,/KP_ROW2*%
X57300000Y-54820000D03*
D15*
X56500000Y-54820000D03*
D14*
%TO.P,A1,7,GPIO5_7*%
%TO.N,/KP_ROW3*%
X57300000Y-52280000D03*
D15*
X56500000Y-52280000D03*
D16*
%TO.P,A1,8,GND_8*%
%TO.N,GND*%
X57300000Y-49740000D03*
D17*
X56500000Y-49740000D03*
D14*
%TO.P,A1,9,GPIO6_9*%
%TO.N,/KP_COL0*%
X57300000Y-47200000D03*
D15*
X56500000Y-47200000D03*
D14*
%TO.P,A1,10,GPIO7_10*%
%TO.N,/KP_COL1*%
X57300000Y-44660000D03*
D15*
X56500000Y-44660000D03*
D14*
%TO.P,A1,11,GPIO8_11*%
%TO.N,/KP_COL2*%
X57300000Y-42120000D03*
D15*
X56500000Y-42120000D03*
D14*
%TO.P,A1,12,GPIO9_12*%
%TO.N,unconnected-(A1-GPIO9-Pad12)_1*%
X57300000Y-39580000D03*
D15*
%TO.N,unconnected-(A1-GPIO9-Pad12)*%
X56500000Y-39580000D03*
D16*
%TO.P,A1,13,GND_13*%
%TO.N,GND*%
X57300000Y-37040000D03*
D17*
X56500000Y-37040000D03*
D14*
%TO.P,A1,14,GPIO10_14*%
%TO.N,/HOOK_SW*%
X57300000Y-34500000D03*
D15*
X56500000Y-34500000D03*
D14*
%TO.P,A1,15,GPIO11_15*%
%TO.N,/RINGER_IN1*%
X57300000Y-31960000D03*
D15*
X56500000Y-31960000D03*
D14*
%TO.P,A1,16,GPIO12_16*%
%TO.N,unconnected-(A1-GPIO12-Pad16)*%
X57300000Y-29420000D03*
D15*
%TO.N,unconnected-(A1-GPIO12-Pad16)_1*%
X56500000Y-29420000D03*
D14*
%TO.P,A1,17,GPIO13_17*%
%TO.N,unconnected-(A1-GPIO13-Pad17)_1*%
X57300000Y-26880000D03*
D15*
%TO.N,unconnected-(A1-GPIO13-Pad17)*%
X56500000Y-26880000D03*
D16*
%TO.P,A1,18,GND_18*%
%TO.N,GND*%
X57300000Y-24340000D03*
D17*
X56500000Y-24340000D03*
D14*
%TO.P,A1,19,GPIO14_19*%
%TO.N,/LED_OUT*%
X57300000Y-21800000D03*
D15*
X56500000Y-21800000D03*
D14*
%TO.P,A1,20,GPIO15_20*%
%TO.N,/RINGER_IN2*%
X57300000Y-19260000D03*
D15*
X56500000Y-19260000D03*
%TO.P,A1,21,GPIO16_21*%
%TO.N,unconnected-(A1-GPIO16-Pad21)_1*%
X38720000Y-19260000D03*
D14*
%TO.N,unconnected-(A1-GPIO16-Pad21)*%
X37920000Y-19260000D03*
D15*
%TO.P,A1,22,GPIO17_22*%
%TO.N,unconnected-(A1-GPIO17-Pad22)_1*%
X38720000Y-21800000D03*
D14*
%TO.N,unconnected-(A1-GPIO17-Pad22)*%
X37920000Y-21800000D03*
D18*
%TO.P,A1,23,GND_23*%
%TO.N,GND*%
X38720000Y-24340000D03*
D12*
X37920000Y-24340000D03*
D15*
%TO.P,A1,24,GPIO18_24*%
%TO.N,unconnected-(A1-GPIO18-Pad24)_1*%
X38720000Y-26880000D03*
D14*
%TO.N,unconnected-(A1-GPIO18-Pad24)*%
X37920000Y-26880000D03*
D15*
%TO.P,A1,25,GPIO19_25*%
%TO.N,unconnected-(A1-GPIO19-Pad25)*%
X38720000Y-29420000D03*
D14*
%TO.N,unconnected-(A1-GPIO19-Pad25)_1*%
X37920000Y-29420000D03*
D15*
%TO.P,A1,26,GPIO20_26*%
%TO.N,unconnected-(A1-GPIO20-Pad26)*%
X38720000Y-31960000D03*
D14*
%TO.N,unconnected-(A1-GPIO20-Pad26)_1*%
X37920000Y-31960000D03*
D15*
%TO.P,A1,27,GPIO21_27*%
%TO.N,unconnected-(A1-GPIO21-Pad27)*%
X38720000Y-34500000D03*
D14*
%TO.N,unconnected-(A1-GPIO21-Pad27)_1*%
X37920000Y-34500000D03*
D18*
%TO.P,A1,28,GND_28*%
%TO.N,GND*%
X38720000Y-37040000D03*
D12*
X37920000Y-37040000D03*
D15*
%TO.P,A1,29,GPIO22_29*%
%TO.N,unconnected-(A1-GPIO22-Pad29)_1*%
X38720000Y-39580000D03*
D14*
%TO.N,unconnected-(A1-GPIO22-Pad29)*%
X37920000Y-39580000D03*
D15*
%TO.P,A1,30,RUN_30*%
%TO.N,unconnected-(A1-RUN-Pad30)_1*%
X38720000Y-42120000D03*
D14*
%TO.N,unconnected-(A1-RUN-Pad30)*%
X37920000Y-42120000D03*
D15*
%TO.P,A1,31,GPIO26_ADC0_31*%
%TO.N,unconnected-(A1-GPIO26_ADC0-Pad31)_1*%
X38720000Y-44660000D03*
D14*
%TO.N,unconnected-(A1-GPIO26_ADC0-Pad31)*%
X37920000Y-44660000D03*
D15*
%TO.P,A1,32,GPIO27_ADC1_32*%
%TO.N,unconnected-(A1-GPIO27_ADC1-Pad32)*%
X38720000Y-47200000D03*
D14*
%TO.N,unconnected-(A1-GPIO27_ADC1-Pad32)_1*%
X37920000Y-47200000D03*
D18*
%TO.P,A1,33,AGND_33*%
%TO.N,unconnected-(A1-AGND-Pad33)_1*%
X38720000Y-49740000D03*
D12*
%TO.N,unconnected-(A1-AGND-Pad33)*%
X37920000Y-49740000D03*
D15*
%TO.P,A1,34,GPIO28_ADC2_34*%
%TO.N,unconnected-(A1-GPIO28_ADC2-Pad34)*%
X38720000Y-52280000D03*
D14*
%TO.N,unconnected-(A1-GPIO28_ADC2-Pad34)_1*%
X37920000Y-52280000D03*
D15*
%TO.P,A1,35,ADC_VREF_35*%
%TO.N,unconnected-(A1-ADC_VREF-Pad35)_1*%
X38720000Y-54820000D03*
D14*
%TO.N,unconnected-(A1-ADC_VREF-Pad35)*%
X37920000Y-54820000D03*
D15*
%TO.P,A1,36,3V3_36*%
%TO.N,unconnected-(A1-3V3-Pad36)*%
X38720000Y-57360000D03*
D14*
%TO.N,unconnected-(A1-3V3-Pad36)_1*%
X37920000Y-57360000D03*
D15*
%TO.P,A1,37,3V3_EN_37*%
%TO.N,unconnected-(A1-3V3_EN-Pad37)_1*%
X38720000Y-59900000D03*
D14*
%TO.N,unconnected-(A1-3V3_EN-Pad37)*%
X37920000Y-59900000D03*
D18*
%TO.P,A1,38,GND_38*%
%TO.N,GND*%
X38720000Y-62440000D03*
D12*
X37920000Y-62440000D03*
D15*
%TO.P,A1,39,VSYS_39*%
%TO.N,+5V*%
X38720000Y-64980000D03*
D14*
X37920000Y-64980000D03*
D15*
%TO.P,A1,40,VBUS_40*%
%TO.N,unconnected-(A1-VBUS-Pad40)_1*%
X38720000Y-67520000D03*
D14*
%TO.N,unconnected-(A1-VBUS-Pad40)*%
X37920000Y-67520000D03*
%TD*%
D19*
%TO.P,D1,1,K_1*%
%TO.N,Net-(D1-K)*%
X18000000Y-55460000D03*
D20*
%TO.P,D1,2,A_2*%
%TO.N,GND*%
X30700000Y-55460000D03*
%TD*%
D15*
%TO.P,C3,1*%
%TO.N,/MIC_HOT*%
X85140000Y-22760000D03*
%TO.P,C3,2*%
%TO.N,/MIC_GND*%
X87640000Y-22760000D03*
%TD*%
D21*
%TO.P,J3,1*%
%TO.N,+12V*%
X22700000Y-29460000D03*
D22*
%TO.P,J3,2*%
%TO.N,GND*%
X22700000Y-23460000D03*
D23*
%TO.P,J3,3*%
%TO.N,unconnected-(J3-Pad3)*%
X18000000Y-26460000D03*
%TD*%
D24*
%TO.P,J7,1,Pin_1_1*%
%TO.N,/BELL_1*%
X84867500Y-53460000D03*
D25*
%TO.P,J7,2,Pin_2_2*%
%TO.N,/BELL_2*%
X84867500Y-48460000D03*
%TD*%
D26*
%TO.P,J10,1,Pin_1_1*%
%TO.N,/EAR_P*%
X81270000Y-23480000D03*
D27*
%TO.P,J10,2,Pin_2_2*%
%TO.N,/EAR_N*%
X81270000Y-26020000D03*
%TD*%
D28*
%TO.P,C2,1*%
%TO.N,+5V*%
X29500000Y-47960000D03*
D15*
%TO.P,C2,2*%
%TO.N,GND*%
X33000000Y-47960000D03*
%TD*%
D29*
%TO.P,J4,1,Pin_1_1*%
%TO.N,/KP_COL0*%
X62500000Y-43960000D03*
D30*
%TO.P,J4,2,Pin_2_2*%
%TO.N,/KP_COL1*%
X62500000Y-45460000D03*
%TO.P,J4,3,Pin_3_3*%
%TO.N,/KP_COL2*%
X62500000Y-46960000D03*
%TO.P,J4,4,Pin_4_4*%
%TO.N,/KP_ROW3*%
X62500000Y-48460000D03*
%TO.P,J4,5,Pin_5_5*%
%TO.N,/KP_ROW2*%
X62500000Y-49960000D03*
%TO.P,J4,6,Pin_6_6*%
%TO.N,/KP_ROW1*%
X62500000Y-51460000D03*
%TO.P,J4,7,Pin_7_7*%
%TO.N,/KP_ROW0*%
X62500000Y-52960000D03*
%TD*%
D31*
%TO.P,J2,1,Pin_1_1*%
%TO.N,/SWD_SWDIO*%
X62300000Y-64585000D03*
%TO.P,J2,2,Pin_2_2*%
%TO.N,GND*%
X63300000Y-64585000D03*
%TO.P,J2,3,Pin_3_3*%
%TO.N,/SWD_SWCLK*%
X64300000Y-64585000D03*
D32*
%TO.P,J2,MP*%
%TO.N,N/C*%
X61000000Y-68460000D03*
X65600000Y-68460000D03*
%TD*%
D33*
%TO.P,U1,1,VIN_1*%
%TO.N,+12V*%
X21000000Y-34160000D03*
%TO.P,U1,2,OUT_2*%
%TO.N,Net-(D1-K)*%
X21000000Y-35860000D03*
%TO.P,U1,3,GND_3*%
%TO.N,GND*%
X21000000Y-37560000D03*
D34*
X30150000Y-37560000D03*
D33*
%TO.P,U1,4,FB_4*%
%TO.N,+5V*%
X21000000Y-39260000D03*
%TO.P,U1,5,~{ON}/OFF_5*%
%TO.N,GND*%
X21000000Y-40960000D03*
%TD*%
D35*
%TO.P,J8,1,Pin_1_1*%
%TO.N,/MIC_HOT*%
X81500000Y-17960000D03*
D36*
%TO.P,J8,2,Pin_2_2*%
%TO.N,/EAR_P*%
X83000000Y-17960000D03*
%TO.P,J8,3,Pin_3_3*%
%TO.N,/EAR_N*%
X84500000Y-17960000D03*
%TO.P,J8,4,Pin_4_4*%
%TO.N,/MIC_GND*%
X86000000Y-17960000D03*
%TD*%
D26*
%TO.P,J9,1,Pin_1_1*%
%TO.N,/MIC_HOT*%
X79500000Y-37460000D03*
D27*
%TO.P,J9,2,Pin_2_2*%
%TO.N,/MIC_FROM_SW*%
X79500000Y-40000000D03*
%TO.P,J9,3,Pin_3_3*%
%TO.N,/MIC_GND*%
X79500000Y-42540000D03*
%TD*%
D35*
%TO.P,J6,1,Pin_1_1*%
%TO.N,Net-(J6-Pin_1)*%
X66750000Y-47010000D03*
D36*
%TO.P,J6,2,Pin_2_2*%
%TO.N,GND*%
X68250000Y-47010000D03*
%TD*%
D26*
%TO.P,J5,1,Pin_1_1*%
%TO.N,/RINGER_IN1*%
X67500000Y-53840000D03*
D27*
%TO.P,J5,2,Pin_2_2*%
%TO.N,/RINGER_IN2*%
X67500000Y-56380000D03*
%TO.P,J5,3,Pin_3_3*%
%TO.N,+12V*%
X67500000Y-58920000D03*
%TO.P,J5,4,Pin_4_4*%
%TO.N,GND*%
X67500000Y-61460000D03*
%TD*%
D25*
%TO.P,L1,1,1_1*%
%TO.N,Net-(D1-K)*%
X17000000Y-64960000D03*
%TO.P,L1,2,2_2*%
%TO.N,+5V*%
X22000000Y-64960000D03*
%TD*%
D15*
%TO.P,R1,1*%
%TO.N,/LED_OUT*%
X61690000Y-40460000D03*
%TO.P,R1,2*%
%TO.N,Net-(J6-Pin_1)*%
X69310000Y-40460000D03*
%TD*%
D26*
%TO.P,J1,1,Pin_1_1*%
%TO.N,unconnected-(J1-Pin_1-Pad1)*%
X75500000Y-17940000D03*
D27*
%TO.P,J1,2,Pin_2_2*%
%TO.N,+5V*%
X72960000Y-17940000D03*
%TO.P,J1,3,Pin_3_3*%
%TO.N,unconnected-(J1-Pin_3-Pad3)*%
X75500000Y-20480000D03*
%TO.P,J1,4,Pin_4_4*%
%TO.N,unconnected-(J1-Pin_4-Pad4)*%
X72960000Y-20480000D03*
%TO.P,J1,5,Pin_5_5*%
%TO.N,unconnected-(J1-Pin_5-Pad5)*%
X75500000Y-23020000D03*
%TO.P,J1,6,Pin_6_6*%
%TO.N,GND*%
X72960000Y-23020000D03*
%TO.P,J1,7,Pin_7_7*%
%TO.N,unconnected-(J1-Pin_7-Pad7)*%
X75500000Y-25560000D03*
%TO.P,J1,8,Pin_8_8*%
%TO.N,/UART_TX_PI*%
X72960000Y-25560000D03*
%TO.P,J1,9,Pin_9_9*%
%TO.N,unconnected-(J1-Pin_9-Pad9)*%
X75500000Y-28100000D03*
%TO.P,J1,10,Pin_10_10*%
%TO.N,/UART_RX_PI*%
X72960000Y-28100000D03*
%TO.P,J1,11,Pin_11_11*%
%TO.N,unconnected-(J1-Pin_11-Pad11)*%
X75500000Y-30640000D03*
%TO.P,J1,12,Pin_12_12*%
%TO.N,unconnected-(J1-Pin_12-Pad12)*%
X72960000Y-30640000D03*
%TO.P,J1,13,Pin_13_13*%
%TO.N,unconnected-(J1-Pin_13-Pad13)*%
X75500000Y-33180000D03*
%TO.P,J1,14,Pin_14_14*%
%TO.N,unconnected-(J1-Pin_14-Pad14)*%
X72960000Y-33180000D03*
%TO.P,J1,15,Pin_15_15*%
%TO.N,/SWD_SWDIO*%
X75500000Y-35720000D03*
%TO.P,J1,16,Pin_16_16*%
%TO.N,unconnected-(J1-Pin_16-Pad16)*%
X72960000Y-35720000D03*
%TO.P,J1,17,Pin_17_17*%
%TO.N,unconnected-(J1-Pin_17-Pad17)*%
X75500000Y-38260000D03*
%TO.P,J1,18,Pin_18_18*%
%TO.N,unconnected-(J1-Pin_18-Pad18)*%
X72960000Y-38260000D03*
%TO.P,J1,19,Pin_19_19*%
%TO.N,unconnected-(J1-Pin_19-Pad19)*%
X75500000Y-40800000D03*
%TO.P,J1,20,Pin_20_20*%
%TO.N,unconnected-(J1-Pin_20-Pad20)*%
X72960000Y-40800000D03*
%TO.P,J1,21,Pin_21_21*%
%TO.N,unconnected-(J1-Pin_21-Pad21)*%
X75500000Y-43340000D03*
%TO.P,J1,22,Pin_22_22*%
%TO.N,/SWD_SWCLK*%
X72960000Y-43340000D03*
%TO.P,J1,23,Pin_23_23*%
%TO.N,unconnected-(J1-Pin_23-Pad23)*%
X75500000Y-45880000D03*
%TO.P,J1,24,Pin_24_24*%
%TO.N,unconnected-(J1-Pin_24-Pad24)*%
X72960000Y-45880000D03*
%TO.P,J1,25,Pin_25_25*%
%TO.N,unconnected-(J1-Pin_25-Pad25)*%
X75500000Y-48420000D03*
%TO.P,J1,26,Pin_26_26*%
%TO.N,unconnected-(J1-Pin_26-Pad26)*%
X72960000Y-48420000D03*
%TO.P,J1,27,Pin_27_27*%
%TO.N,unconnected-(J1-Pin_27-Pad27)*%
X75500000Y-50960000D03*
%TO.P,J1,28,Pin_28_28*%
%TO.N,unconnected-(J1-Pin_28-Pad28)*%
X72960000Y-50960000D03*
%TO.P,J1,29,Pin_29_29*%
%TO.N,unconnected-(J1-Pin_29-Pad29)*%
X75500000Y-53500000D03*
%TO.P,J1,30,Pin_30_30*%
%TO.N,unconnected-(J1-Pin_30-Pad30)*%
X72960000Y-53500000D03*
%TO.P,J1,31,Pin_31_31*%
%TO.N,unconnected-(J1-Pin_31-Pad31)*%
X75500000Y-56040000D03*
%TO.P,J1,32,Pin_32_32*%
%TO.N,unconnected-(J1-Pin_32-Pad32)*%
X72960000Y-56040000D03*
%TO.P,J1,33,Pin_33_33*%
%TO.N,unconnected-(J1-Pin_33-Pad33)*%
X75500000Y-58580000D03*
%TO.P,J1,34,Pin_34_34*%
%TO.N,unconnected-(J1-Pin_34-Pad34)*%
X72960000Y-58580000D03*
%TO.P,J1,35,Pin_35_35*%
%TO.N,unconnected-(J1-Pin_35-Pad35)*%
X75500000Y-61120000D03*
%TO.P,J1,36,Pin_36_36*%
%TO.N,unconnected-(J1-Pin_36-Pad36)*%
X72960000Y-61120000D03*
%TO.P,J1,37,Pin_37_37*%
%TO.N,unconnected-(J1-Pin_37-Pad37)*%
X75500000Y-63660000D03*
%TO.P,J1,38,Pin_38_38*%
%TO.N,unconnected-(J1-Pin_38-Pad38)*%
X72960000Y-63660000D03*
%TO.P,J1,39,Pin_39_39*%
%TO.N,unconnected-(J1-Pin_39-Pad39)*%
X75500000Y-66200000D03*
%TO.P,J1,40,Pin_40_40*%
%TO.N,unconnected-(J1-Pin_40-Pad40)*%
X72960000Y-66200000D03*
%TD*%
D37*
%TO.N,/SWD_SWCLK*%
X66193000Y-64137300D03*
%TO.N,/SWD_SWDIO*%
X74416800Y-62203200D03*
%TO.N,Net-(D1-K)*%
X16424300Y-35772500D03*
%TO.N,+5V*%
X34000300Y-15842500D03*
%TO.N,/RINGER_IN2*%
X63739800Y-54089100D03*
%TD*%
%TO.N,/SWD_SWCLK*%
D38*
X64747700Y-64137300D02*
X64300000Y-64585000D01*
X66193000Y-64137300D02*
X64747700Y-64137300D01*
%TO.N,/SWD_SWDIO*%
X62300000Y-65048200D02*
X62300000Y-64585000D01*
X63018000Y-65766200D02*
X62300000Y-65048200D01*
X66798700Y-65766200D02*
X63018000Y-65766200D01*
X70101500Y-62463400D02*
X66798700Y-65766200D01*
X74156600Y-62463400D02*
X70101500Y-62463400D01*
X74416800Y-62203200D02*
X74156600Y-62463400D01*
%TO.N,/MIC_HOT*%
X81500000Y-19120000D02*
X81500000Y-17960000D01*
X85140000Y-22760000D02*
X81500000Y-19120000D01*
%TO.N,Net-(D1-K)*%
X20912500Y-35772500D02*
X21000000Y-35860000D01*
X16424300Y-35772500D02*
X20912500Y-35772500D01*
%TO.N,+5V*%
D39*
X24039100Y-42499100D02*
X29500000Y-47960000D01*
X24039100Y-40426000D02*
X24039100Y-42499100D01*
X22873100Y-39260000D02*
X24039100Y-40426000D01*
X21000000Y-39260000D02*
X22873100Y-39260000D01*
X38720000Y-64980000D02*
X37920000Y-64980000D01*
X70862500Y-15842500D02*
X72960000Y-17940000D01*
X34000300Y-15842500D02*
X70862500Y-15842500D01*
%TO.N,/RINGER_IN2*%
D38*
X56500000Y-19260000D02*
X57300000Y-19260000D01*
X64066500Y-54415800D02*
X63739800Y-54089100D01*
X63739800Y-54089100D02*
X64066500Y-54415800D01*
X64066500Y-54415800D02*
X63739800Y-54089100D01*
X65644000Y-56380000D02*
X67500000Y-56380000D01*
X64066500Y-54802500D02*
X65644000Y-56380000D01*
X64066500Y-54415800D02*
X64066500Y-54802500D01*
%TO.N,/LED_OUT*%
X56500000Y-21800000D02*
X57300000Y-21800000D01*
%TO.N,/RINGER_IN1*%
X57300000Y-31960000D02*
X56500000Y-31960000D01*
X58646900Y-30613100D02*
X57300000Y-31960000D01*
X69487400Y-30613100D02*
X58646900Y-30613100D01*
X70461300Y-31587000D02*
X69487400Y-30613100D01*
X70461300Y-49702000D02*
X70461300Y-31587000D01*
X67500000Y-52663300D02*
X70461300Y-49702000D01*
X67500000Y-53840000D02*
X67500000Y-52663300D01*
%TO.N,/KP_COL2*%
X56500000Y-42120000D02*
X57300000Y-42120000D01*
X59888000Y-46960000D02*
X62500000Y-46960000D01*
X58986700Y-46058700D02*
X59888000Y-46960000D01*
X56274300Y-46058700D02*
X58986700Y-46058700D01*
X55324500Y-45108900D02*
X56274300Y-46058700D01*
X55324500Y-43295500D02*
X55324500Y-45108900D01*
X56500000Y-42120000D02*
X55324500Y-43295500D01*
%TO.N,/KP_COL1*%
X56500000Y-44660000D02*
X57300000Y-44660000D01*
X58100000Y-45460000D02*
X57300000Y-44660000D01*
X62500000Y-45460000D02*
X58100000Y-45460000D01*
%TO.N,/KP_COL0*%
X56500000Y-47200000D02*
X57300000Y-47200000D01*
%TO.N,/KP_ROW3*%
X56500000Y-52280000D02*
X57300000Y-52280000D01*
X61120000Y-48460000D02*
X62500000Y-48460000D01*
X57300000Y-52280000D02*
X61120000Y-48460000D01*
%TO.N,/KP_ROW2*%
X62500000Y-49960000D02*
X61308300Y-49960000D01*
X61308300Y-50811700D02*
X57300000Y-54820000D01*
X61308300Y-49960000D02*
X61308300Y-50811700D01*
X57300000Y-54820000D02*
X56500000Y-54820000D01*
%TO.N,/KP_ROW1*%
X56500000Y-57360000D02*
X57300000Y-57360000D01*
%TO.N,/KP_ROW0*%
X57300000Y-59900000D02*
X56500000Y-59900000D01*
%TO.N,/UART_TX_PI*%
X57300000Y-64980000D02*
X56500000Y-64980000D01*
%TO.N,/UART_RX_PI*%
X56500000Y-67520000D02*
X57300000Y-67520000D01*
%TO.N,/HOOK_SW*%
X62400000Y-31960000D02*
X68900000Y-31960000D01*
X59860000Y-34500000D02*
X57300000Y-34500000D01*
X62400000Y-31960000D02*
X59860000Y-34500000D01*
X56500000Y-34500000D02*
X57300000Y-34500000D01*
%TO.N,GND*%
D39*
X37400000Y-37560000D02*
X37920000Y-37040000D01*
X30150000Y-37560000D02*
X37400000Y-37560000D01*
X56500000Y-62440000D02*
X56900000Y-62440000D01*
X56900000Y-62440000D02*
X57300000Y-62440000D01*
X56500000Y-49740000D02*
X57300000Y-49740000D01*
X68900000Y-36460000D02*
X62400000Y-36460000D01*
X56500000Y-37040000D02*
X57300000Y-37040000D01*
X61820000Y-37040000D02*
X62400000Y-36460000D01*
X57300000Y-37040000D02*
X61820000Y-37040000D01*
X38720000Y-37040000D02*
X37920000Y-37040000D01*
X57300000Y-24340000D02*
X56500000Y-24340000D01*
X38720000Y-24340000D02*
X37920000Y-24340000D01*
X65580700Y-61460000D02*
X67500000Y-61460000D01*
X63300000Y-63740700D02*
X65580700Y-61460000D01*
X63300000Y-64585000D02*
X63300000Y-63740700D01*
X23580000Y-24340000D02*
X22700000Y-23460000D01*
X37920000Y-24340000D02*
X23580000Y-24340000D01*
X56900000Y-62440000D02*
X38155000Y-62440000D01*
X38155000Y-62440000D02*
X37920000Y-62440000D01*
X35020000Y-62440000D02*
X32500000Y-64960000D01*
X37920000Y-62440000D02*
X35020000Y-62440000D01*
X38720000Y-62440000D02*
X38155000Y-62440000D01*
X37866200Y-36986200D02*
X37920000Y-37040000D01*
X32425700Y-36986200D02*
X37866200Y-36986200D01*
X32270600Y-36831100D02*
X32425700Y-36986200D01*
X32270600Y-36831000D02*
X32270600Y-36831100D01*
X33223400Y-35878200D02*
X32270600Y-36831000D01*
X36554000Y-35878200D02*
X33223400Y-35878200D01*
X36555500Y-35879700D02*
X36554000Y-35878200D01*
X55339700Y-35879700D02*
X36555500Y-35879700D01*
X56500000Y-37040000D02*
X55339700Y-35879700D01*
X30150000Y-37560000D02*
X21000000Y-37560000D01*
X19178200Y-40960000D02*
X21000000Y-40960000D01*
X18093500Y-39875300D02*
X19178200Y-40960000D01*
X18093500Y-38627400D02*
X18093500Y-39875300D01*
X19160900Y-37560000D02*
X18093500Y-38627400D01*
X21000000Y-37560000D02*
X19160900Y-37560000D01*
X71640000Y-24340000D02*
X57300000Y-24340000D01*
X72960000Y-23020000D02*
X71640000Y-24340000D01*
%TO.N,+12V*%
X31897800Y-69357800D02*
X27500000Y-64960000D01*
X58623700Y-69357800D02*
X31897800Y-69357800D01*
X59558900Y-68422600D02*
X58623700Y-69357800D01*
X59558900Y-65463000D02*
X59558900Y-68422600D01*
X66101900Y-58920000D02*
X59558900Y-65463000D01*
X67500000Y-58920000D02*
X66101900Y-58920000D01*
X22700000Y-32460000D02*
X22700000Y-29460000D01*
X21000000Y-34160000D02*
X22700000Y-32460000D01*
%TD*%
M02*
