%TF.GenerationSoftware,KiCad,Pcbnew,10.0.0*%
%TF.CreationDate,2026-04-06T23:45:41-07:00*%
%TF.ProjectId,digits-pcb,64696769-7473-42d7-9063-622e6b696361,rev?*%
%TF.SameCoordinates,Original*%
%TF.FileFunction,Soldermask,Bot*%
%TF.FilePolarity,Negative*%
%FSLAX46Y46*%
G04 Gerber Fmt 4.6, Leading zero omitted, Abs format (unit mm)*
G04 Created by KiCad (PCBNEW 10.0.0) date 2026-04-06 23:45:41*
%MOMM*%
%LPD*%
G01*
G04 APERTURE LIST*
G04 Aperture macros list*
%AMRoundRect*
0 Rectangle with rounded corners*
0 $1 Rounding radius*
0 $2 $3 $4 $5 $6 $7 $8 $9 X,Y pos of 4 corners*
0 Add a 4 corners polygon primitive as box body*
4,1,4,$2,$3,$4,$5,$6,$7,$8,$9,$2,$3,0*
0 Add four circle primitives for the rounded corners*
1,1,$1+$1,$2,$3*
1,1,$1+$1,$4,$5*
1,1,$1+$1,$6,$7*
1,1,$1+$1,$8,$9*
0 Add four rect primitives between the rounded corners*
20,1,$1+$1,$2,$3,$4,$5,0*
20,1,$1+$1,$4,$5,$6,$7,0*
20,1,$1+$1,$6,$7,$8,$9,0*
20,1,$1+$1,$8,$9,$2,$3,0*%
%AMFreePoly0*
4,1,37,0.603843,0.796157,0.639018,0.796157,0.711114,0.766294,0.766294,0.711114,0.796157,0.639018,0.796157,0.603843,0.800000,0.600000,0.800000,-0.600000,0.796157,-0.603843,0.796157,-0.639018,0.766294,-0.711114,0.711114,-0.766294,0.639018,-0.796157,0.603843,-0.796157,0.600000,-0.800000,0.000000,-0.800000,0.000000,-0.796148,-0.078414,-0.796148,-0.232228,-0.765552,-0.377117,-0.705537,
-0.507515,-0.618408,-0.618408,-0.507515,-0.705537,-0.377117,-0.765552,-0.232228,-0.796148,-0.078414,-0.796148,0.078414,-0.765552,0.232228,-0.705537,0.377117,-0.618408,0.507515,-0.507515,0.618408,-0.377117,0.705537,-0.232228,0.765552,-0.078414,0.796148,0.000000,0.796148,0.000000,0.800000,0.600000,0.800000,0.603843,0.796157,0.603843,0.796157,$1*%
%AMFreePoly1*
4,1,37,0.000000,0.796148,0.078414,0.796148,0.232228,0.765552,0.377117,0.705537,0.507515,0.618408,0.618408,0.507515,0.705537,0.377117,0.765552,0.232228,0.796148,0.078414,0.796148,-0.078414,0.765552,-0.232228,0.705537,-0.377117,0.618408,-0.507515,0.507515,-0.618408,0.377117,-0.705537,0.232228,-0.765552,0.078414,-0.796148,0.000000,-0.796148,0.000000,-0.800000,-0.600000,-0.800000,
-0.603843,-0.796157,-0.639018,-0.796157,-0.711114,-0.766294,-0.766294,-0.711114,-0.796157,-0.639018,-0.796157,-0.603843,-0.800000,-0.600000,-0.800000,0.600000,-0.796157,0.603843,-0.796157,0.639018,-0.766294,0.711114,-0.711114,0.766294,-0.639018,0.796157,-0.603843,0.796157,-0.600000,0.800000,0.000000,0.800000,0.000000,0.796148,0.000000,0.796148,$1*%
G04 Aperture macros list end*
%ADD10RoundRect,0.250000X-0.750000X-0.750000X0.750000X-0.750000X0.750000X0.750000X-0.750000X0.750000X0*%
%ADD11C,2.000000*%
%ADD12C,2.200000*%
%ADD13C,1.850000*%
%ADD14RoundRect,0.200000X0.600000X0.600000X-0.600000X0.600000X-0.600000X-0.600000X0.600000X-0.600000X0*%
%ADD15C,1.600000*%
%ADD16FreePoly0,180.000000*%
%ADD17FreePoly1,180.000000*%
%ADD18RoundRect,0.250000X-1.350000X-1.350000X1.350000X-1.350000X1.350000X1.350000X-1.350000X1.350000X0*%
%ADD19C,3.200000*%
%ADD20R,3.500000X3.500000*%
%ADD21RoundRect,0.750000X-1.000000X0.750000X-1.000000X-0.750000X1.000000X-0.750000X1.000000X0.750000X0*%
%ADD22RoundRect,0.875000X-0.875000X0.875000X-0.875000X-0.875000X0.875000X-0.875000X0.875000X0.875000X0*%
%ADD23RoundRect,0.250000X1.050000X-1.050000X1.050000X1.050000X-1.050000X1.050000X-1.050000X-1.050000X0*%
%ADD24C,2.600000*%
%ADD25R,1.700000X1.700000*%
%ADD26C,1.700000*%
%ADD27RoundRect,0.250000X-0.550000X-0.550000X0.550000X-0.550000X0.550000X0.550000X-0.550000X0.550000X0*%
%ADD28RoundRect,0.250000X-0.615000X0.265000X-0.615000X-0.265000X0.615000X-0.265000X0.615000X0.265000X0*%
%ADD29O,1.730000X1.030000*%
%ADD30RoundRect,0.250000X-0.265000X-0.615000X0.265000X-0.615000X0.265000X0.615000X-0.265000X0.615000X0*%
%ADD31O,1.030000X1.730000*%
G04 APERTURE END LIST*
D10*
%TO.C,C1*%
X27500000Y-64960000D03*
D11*
X32500000Y-64960000D03*
%TD*%
%TO.C,SW1*%
X62400000Y-31960000D03*
X68900000Y-31960000D03*
X62400000Y-36460000D03*
X68900000Y-36460000D03*
%TD*%
D12*
%TO.C,A1*%
X50335000Y-67390000D03*
D13*
X50035000Y-64360000D03*
X45185000Y-64360000D03*
D12*
X44885000Y-67390000D03*
D14*
X56500000Y-67520000D03*
D15*
X56500000Y-64980000D03*
D16*
X56500000Y-62440000D03*
D15*
X56500000Y-59900000D03*
X56500000Y-57360000D03*
X56500000Y-54820000D03*
X56500000Y-52280000D03*
D16*
X56500000Y-49740000D03*
D15*
X56500000Y-47200000D03*
X56500000Y-44660000D03*
X56500000Y-42120000D03*
X56500000Y-39580000D03*
D16*
X56500000Y-37040000D03*
D15*
X56500000Y-34500000D03*
X56500000Y-31960000D03*
X56500000Y-29420000D03*
X56500000Y-26880000D03*
D16*
X56500000Y-24340000D03*
D15*
X56500000Y-21800000D03*
X56500000Y-19260000D03*
X38720000Y-19260000D03*
X38720000Y-21800000D03*
D17*
X38720000Y-24340000D03*
D15*
X38720000Y-26880000D03*
X38720000Y-29420000D03*
X38720000Y-31960000D03*
X38720000Y-34500000D03*
D17*
X38720000Y-37040000D03*
D15*
X38720000Y-39580000D03*
X38720000Y-42120000D03*
X38720000Y-44660000D03*
X38720000Y-47200000D03*
D17*
X38720000Y-49740000D03*
D15*
X38720000Y-52280000D03*
X38720000Y-54820000D03*
X38720000Y-57360000D03*
X38720000Y-59900000D03*
D17*
X38720000Y-62440000D03*
D15*
X38720000Y-64980000D03*
X38720000Y-67520000D03*
%TD*%
D18*
%TO.C,D1*%
X18000000Y-55460000D03*
D19*
X30700000Y-55460000D03*
%TD*%
D15*
%TO.C,C3*%
X85140000Y-22760000D03*
X87640000Y-22760000D03*
%TD*%
D19*
%TO.C,H3*%
X87400000Y-30460000D03*
%TD*%
D20*
%TO.C,J3*%
X22700000Y-29460000D03*
D21*
X22700000Y-23460000D03*
D22*
X18000000Y-26460000D03*
%TD*%
D19*
%TO.C,H1*%
X23400000Y-47960000D03*
%TD*%
%TO.C,H2*%
X82300000Y-61160000D03*
%TD*%
D23*
%TO.C,J7*%
X84867500Y-53460000D03*
D24*
X84867500Y-48460000D03*
%TD*%
D25*
%TO.C,J10*%
X81270000Y-23480000D03*
D26*
X81270000Y-26020000D03*
%TD*%
D27*
%TO.C,C2*%
X29500000Y-47960000D03*
D15*
X33000000Y-47960000D03*
%TD*%
D28*
%TO.C,J4*%
X62500000Y-43960000D03*
D29*
X62500000Y-45460000D03*
X62500000Y-46960000D03*
X62500000Y-48460000D03*
X62500000Y-49960000D03*
X62500000Y-51460000D03*
X62500000Y-52960000D03*
%TD*%
D30*
%TO.C,J8*%
X81500000Y-17960000D03*
D31*
X83000000Y-17960000D03*
X84500000Y-17960000D03*
X86000000Y-17960000D03*
%TD*%
D25*
%TO.C,J9*%
X79500000Y-37460000D03*
D26*
X79500000Y-40000000D03*
X79500000Y-42540000D03*
%TD*%
D30*
%TO.C,J6*%
X66750000Y-47010000D03*
D31*
X68250000Y-47010000D03*
%TD*%
D25*
%TO.C,J5*%
X67500000Y-53840000D03*
D26*
X67500000Y-56380000D03*
X67500000Y-58920000D03*
X67500000Y-61460000D03*
%TD*%
D24*
%TO.C,L1*%
X17000000Y-64960000D03*
X22000000Y-64960000D03*
%TD*%
D15*
%TO.C,R1*%
X61690000Y-40460000D03*
X69310000Y-40460000D03*
%TD*%
D25*
%TO.C,J1*%
X75500000Y-17940000D03*
D26*
X72960000Y-17940000D03*
X75500000Y-20480000D03*
X72960000Y-20480000D03*
X75500000Y-23020000D03*
X72960000Y-23020000D03*
X75500000Y-25560000D03*
X72960000Y-25560000D03*
X75500000Y-28100000D03*
X72960000Y-28100000D03*
X75500000Y-30640000D03*
X72960000Y-30640000D03*
X75500000Y-33180000D03*
X72960000Y-33180000D03*
X75500000Y-35720000D03*
X72960000Y-35720000D03*
X75500000Y-38260000D03*
X72960000Y-38260000D03*
X75500000Y-40800000D03*
X72960000Y-40800000D03*
X75500000Y-43340000D03*
X72960000Y-43340000D03*
X75500000Y-45880000D03*
X72960000Y-45880000D03*
X75500000Y-48420000D03*
X72960000Y-48420000D03*
X75500000Y-50960000D03*
X72960000Y-50960000D03*
X75500000Y-53500000D03*
X72960000Y-53500000D03*
X75500000Y-56040000D03*
X72960000Y-56040000D03*
X75500000Y-58580000D03*
X72960000Y-58580000D03*
X75500000Y-61120000D03*
X72960000Y-61120000D03*
X75500000Y-63660000D03*
X72960000Y-63660000D03*
X75500000Y-66200000D03*
X72960000Y-66200000D03*
%TD*%
M02*
