M48
; DRILL file KiCad 10.0.0 date 2026-04-06T23:45:47
; FORMAT={-:-/ absolute / metric / decimal}
; #@! TF.CreationDate,2026-04-06T23:45:47-07:00
; #@! TF.GenerationSoftware,Kicad,Pcbnew,10.0.0
; #@! TF.FileFunction,Plated,1,2,PTH
FMAT,2
METRIC
; #@! TA.AperFunction,Plated,PTH,ViaDrill
T1C0.300
; #@! TA.AperFunction,Plated,PTH,ComponentDrill
T2C0.730
; #@! TA.AperFunction,Plated,PTH,ComponentDrill
T3C0.800
; #@! TA.AperFunction,Plated,PTH,ComponentDrill
T4C1.000
; #@! TA.AperFunction,Plated,PTH,ComponentDrill
T5C1.100
; #@! TA.AperFunction,Plated,PTH,ComponentDrill
T6C1.300
; #@! TA.AperFunction,Plated,PTH,ComponentDrill
T7C1.600
%
G90
G05
T1
X16.424Y-35.773
X34.0Y-15.842
X63.74Y-54.089
X66.193Y-64.137
X74.417Y-62.203
T2
X62.5Y-43.96
X62.5Y-45.46
X62.5Y-46.96
X62.5Y-48.46
X62.5Y-49.96
X62.5Y-51.46
X62.5Y-52.96
X66.75Y-47.01
X68.25Y-47.01
X81.5Y-17.96
X83.0Y-17.96
X84.5Y-17.96
X86.0Y-17.96
T3
X29.5Y-47.96
X33.0Y-47.96
X61.69Y-40.46
X69.31Y-40.46
X85.14Y-22.76
X87.64Y-22.76
T4
X27.5Y-64.96
X32.5Y-64.96
X38.72Y-19.26
X38.72Y-21.8
X38.72Y-24.34
X38.72Y-26.88
X38.72Y-29.42
X38.72Y-31.96
X38.72Y-34.5
X38.72Y-37.04
X38.72Y-39.58
X38.72Y-42.12
X38.72Y-44.66
X38.72Y-47.2
X38.72Y-49.74
X38.72Y-52.28
X38.72Y-54.82
X38.72Y-57.36
X38.72Y-59.9
X38.72Y-62.44
X38.72Y-64.98
X38.72Y-67.52
X56.5Y-19.26
X56.5Y-21.8
X56.5Y-24.34
X56.5Y-26.88
X56.5Y-29.42
X56.5Y-31.96
X56.5Y-34.5
X56.5Y-37.04
X56.5Y-39.58
X56.5Y-42.12
X56.5Y-44.66
X56.5Y-47.2
X56.5Y-49.74
X56.5Y-52.28
X56.5Y-54.82
X56.5Y-57.36
X56.5Y-59.9
X56.5Y-62.44
X56.5Y-64.98
X56.5Y-67.52
X67.5Y-53.84
X67.5Y-56.38
X67.5Y-58.92
X67.5Y-61.46
X72.96Y-17.94
X72.96Y-20.48
X72.96Y-23.02
X72.96Y-25.56
X72.96Y-28.1
X72.96Y-30.64
X72.96Y-33.18
X72.96Y-35.72
X72.96Y-38.26
X72.96Y-40.8
X72.96Y-43.34
X72.96Y-45.88
X72.96Y-48.42
X72.96Y-50.96
X72.96Y-53.5
X72.96Y-56.04
X72.96Y-58.58
X72.96Y-61.12
X72.96Y-63.66
X72.96Y-66.2
X75.5Y-17.94
X75.5Y-20.48
X75.5Y-23.02
X75.5Y-25.56
X75.5Y-28.1
X75.5Y-30.64
X75.5Y-33.18
X75.5Y-35.72
X75.5Y-38.26
X75.5Y-40.8
X75.5Y-43.34
X75.5Y-45.88
X75.5Y-48.42
X75.5Y-50.96
X75.5Y-53.5
X75.5Y-56.04
X75.5Y-58.58
X75.5Y-61.12
X75.5Y-63.66
X75.5Y-66.2
X79.5Y-37.46
X79.5Y-40.0
X79.5Y-42.54
X81.27Y-23.48
X81.27Y-26.02
T5
X62.4Y-31.96
X62.4Y-36.46
X68.9Y-31.96
X68.9Y-36.46
T6
X17.0Y-64.96
X22.0Y-64.96
X84.867Y-48.46
X84.867Y-53.46
T7
X18.0Y-55.46
X30.7Y-55.46
T4
G00X18.0Y-25.46
M15
G01X18.0Y-27.46
M16
G05
G00X23.7Y-23.46
M15
G01X21.7Y-23.46
M16
G05
G00X23.7Y-29.46
M15
G01X21.7Y-29.46
M16
G05
M30
